<svg xmlns="http://www.w3.org/2000/svg" xmlns:xlink="http://www.w3.org/1999/xlink" version="1.1" x="0px" y="0px" viewBox="0 0 512 512" style="enable-background:new 0 0 512 512;" xml:space="preserve"><path d="M410.85,106.64C410.85,106.64,410.85,106.64,410.85,106.64c-10.35-10.35-27.89-9.66-39.1,1.55L183.36,296.58  c-0.18,0.18-0.35,0.38-0.51,0.59l-31.22,42.85c-9.77-0.57-24.85,2.24-31.48,16.4c-2.8,5.97-3.8,10.81-4.69,15.08  c-1.77,8.52-3.29,15.88-20.11,31.93c-1.42,1.36-1.92,3.42-1.26,5.28c0.65,1.86,2.34,3.15,4.3,3.32c1.85,0.16,8.53,0.66,17.16,0.66  c17.28,0,42.39-2.02,52.2-12.88c10.63-11.77,10.27-25.65,8.95-33.36l41.54-29.73c0.22-0.16,0.43-0.34,0.62-0.53l17.29-17.29  c0,0,0,0,0,0s0,0,0,0l163.72-163.72v0v0l9.42-9.42c5.37-5.36,8.51-12.34,8.87-19.63C418.53,118.64,415.93,111.72,410.85,106.64z   M232.62,308.29l-23.41-23.41l156.66-156.66l23.41,23.41L232.62,308.29z M217.37,323.53l-23.41-23.41l8.17-8.17l23.41,23.41  L217.37,323.53z M187.49,307.79l22.52,22.52l-37.64,26.94l-12.1-12.1L187.49,307.79z M160.32,393.1c-7.12,7.88-31.29,9.94-50.2,9.52  c11.81-13.1,13.43-20.9,15.13-29.09c0.85-4.09,1.65-7.96,3.95-12.87c4.82-10.29,16.34-10.95,21.81-10.64l15.19,15.19  C167.33,369.32,169.89,382.52,160.32,393.1z M408.18,125.63c-0.23,4.81-2.34,9.44-5.95,13.04l-5.89,5.89l-23.41-23.41l5.89-5.89  c7.31-7.31,18.5-8,24.96-1.55v0C406.84,116.78,408.4,121.01,408.18,125.63z"/></svg>