<svg xmlns:dc="http://purl.org/dc/elements/1.1/" xmlns:cc="http://creativecommons.org/ns#" xmlns:rdf="http://www.w3.org/1999/02/22-rdf-syntax-ns#" xmlns:svg="http://www.w3.org/2000/svg" xmlns="http://www.w3.org/2000/svg" xmlns:sodipodi="http://sodipodi.sourceforge.net/DTD/sodipodi-0.dtd" xmlns:inkscape="http://www.inkscape.org/namespaces/inkscape" version="1.1" x="0px" y="0px" viewBox="0 0 100 100"><g transform="translate(0,-952.36218)"><path style="text-indent:0;text-transform:none;direction:ltr;block-progression:tb;baseline-shift:baseline;color:#000000;enable-background:accumulate;" d="m 49.818914,958.42147 c -6.759532,-0.0384 -13.323897,1.64562 -19.165854,4.65261 -15.578539,8.01858 -26.3629835,25.22169 -23.0545625,43.36612 0.825094,2.706 4.2562915,1.4235 3.9581575,-0.6943 -2.9511145,-16.18478 6.762508,-31.83458 20.936621,-39.13028 13.525512,-6.96189 30.798071,-6.45272 45.241085,8.64546 l -9.687081,0.38193 c -2.938536,0.32081 -2.056997,4.09695 0.138897,3.99284 l 13.784134,-0.55551 c 0.99844,-0.0448 1.88288,-0.94529 1.90963,-1.94436 l 0.41666,-13.85359 c -0.23938,-2.84655 -3.89749,-2.26406 -3.99288,-0.1041 l -0.24304,8.74967 C 70.750894,962.50829 60.057087,958.47987 49.818914,958.42154 z" fill="#000000" fill-opacity="1" fill-rule="evenodd" stroke="none" marker="none" visibility="visible" display="inline" overflow="visible"/><path style="text-indent:0;text-transform:none;direction:ltr;block-progression:tb;baseline-shift:baseline;color:#000000;enable-background:accumulate;" d="m 85.893751,988.38552 c 4.67284,13.98008 3.73372,25.28238 -0.41662,33.88738 -4.15039,8.605 -11.587541,14.5854 -20.172761,17.6728 -16.399771,5.8976 -36.718475,1.1534 -46.004987,-16.4923 l 10.346775,3.1596 c 2.850166,0.6136 3.25963,-3.1745 1.180489,-3.8193 L 16.035643,1018.28 c -1.233956,-0.3242 -2.319519,0.5192 -2.534633,1.3888 l -4.1664695,15.0688 c -0.421122,2.7853 3.2121145,3.107 3.8539845,1.0764 l 2.812394,-10.1038 c 10.346102,19.1097 32.734097,24.431 50.657561,17.9854 9.450421,-3.3986 17.750091,-10.0567 22.394871,-19.6867 4.64474,-9.6299 5.59272,-22.1492 0.65969,-36.90808 -1.07486,-2.67994 -4.40156,-0.58645 -3.81929,1.2847 z" fill="#000000" fill-opacity="1" fill-rule="evenodd" stroke="none" marker="none" visibility="visible" display="inline" overflow="visible"/></g></svg>