<svg xmlns="http://www.w3.org/2000/svg" xmlns:xlink="http://www.w3.org/1999/xlink" version="1.1" x="0px" y="0px" viewBox="0 0 512 512" style="enable-background:new 0 0 512 512;" xml:space="preserve"><path d="M402.29,255.9c-0.01-0.3-0.03-0.59-0.09-0.88c0,0,0-0.01,0-0.01c-0.06-0.28-0.15-0.56-0.25-0.83  c-0.03-0.08-0.07-0.16-0.1-0.24c-0.09-0.2-0.19-0.39-0.31-0.57c-0.05-0.07-0.09-0.15-0.14-0.22c-0.17-0.24-0.35-0.48-0.56-0.69  l-141.3-141.3c-0.21-0.21-0.45-0.4-0.69-0.57c-0.07-0.05-0.14-0.09-0.21-0.13c-0.19-0.12-0.38-0.22-0.58-0.31  c-0.08-0.03-0.15-0.07-0.23-0.1c-0.55-0.22-1.14-0.33-1.73-0.34c-0.03,0-0.06-0.01-0.09-0.01c-80.67,0-146.3,65.63-146.3,146.3  S175.33,402.3,256,402.3S402.3,336.67,402.3,256C402.3,255.97,402.29,255.93,402.29,255.9z M384.64,250.42  c-65.08-6.02-117.04-57.98-123.06-123.06L384.64,250.42z M256,392.3c-75.16,0-136.3-61.14-136.3-136.3  c0-73.51,58.51-133.61,131.4-136.2c2.64,76.63,64.48,138.47,141.11,141.11C389.61,333.79,329.51,392.3,256,392.3z"/></svg>